<?xml version="1.0" standalone="no"?>
<!DOCTYPE svg PUBLIC "-//W3C//DTD SVG 20010904//EN"
 "http://www.w3.org/TR/2001/REC-SVG-20010904/DTD/svg10.dtd">
<svg version="1.0" xmlns="http://www.w3.org/2000/svg"
 width="512.000000pt" height="512.000000pt" viewBox="0 0 512.000000 512.000000"
 preserveAspectRatio="xMidYMid meet">

<g transform="translate(0.000000,512.000000) scale(0.100000,-0.100000)"
fill="#000000" stroke="none">
<path d="M2280 4801 c-124 -10 -224 -25 -339 -52 -105 -25 -273 -78 -285 -90
-6 -5 -17 -9 -27 -9 -18 0 -274 -127 -352 -175 -42 -26 -129 -86 -162 -112
-96 -77 -181 -150 -230 -198 -42 -43 -141 -153 -160 -179 -11 -15 -28 -37 -38
-49 -11 -12 -35 -47 -55 -77 -20 -30 -39 -57 -43 -60 -7 -6 -33 -53 -51 -92
-7 -16 -15 -28 -19 -28 -4 0 -10 -11 -13 -25 -4 -14 -10 -25 -15 -25 -5 0 -12
-13 -16 -30 -4 -16 -10 -30 -14 -30 -5 0 -14 -20 -21 -45 -7 -25 -16 -45 -21
-45 -4 0 -11 -16 -15 -35 -3 -19 -10 -35 -15 -35 -5 0 -9 -8 -9 -17 0 -10 -7
-31 -15 -46 -8 -15 -17 -43 -21 -63 -3 -19 -10 -37 -15 -40 -5 -3 -7 -10 -3
-15 3 -5 1 -15 -4 -22 -5 -7 -13 -32 -16 -57 -4 -25 -11 -54 -16 -65 -10 -22
-25 -107 -41 -225 -13 -97 -13 -445 0 -535 21 -145 32 -210 38 -225 12 -27 34
-125 33 -148 0 -12 4 -22 9 -22 5 0 12 -16 15 -35 4 -19 13 -47 21 -62 8 -15
15 -36 15 -45 0 -10 4 -18 9 -18 5 0 12 -16 15 -35 4 -19 11 -35 15 -35 5 0
14 -20 21 -45 7 -25 16 -45 21 -45 4 0 10 -13 14 -30 4 -16 11 -30 16 -30 5 0
11 -11 15 -25 3 -14 9 -25 13 -25 4 0 12 -12 18 -28 7 -15 18 -36 25 -47 53
-80 123 -182 132 -192 6 -6 22 -26 36 -45 42 -57 261 -272 340 -334 94 -74
260 -184 277 -184 7 0 13 -4 13 -10 0 -5 11 -12 25 -16 13 -3 29 -12 35 -19 6
-8 25 -17 41 -20 16 -4 29 -11 29 -16 0 -5 5 -9 11 -9 5 0 29 -8 52 -19 23
-10 69 -28 102 -41 33 -12 67 -26 75 -30 9 -4 31 -11 50 -15 19 -4 41 -11 50
-16 44 -23 275 -64 455 -80 112 -10 408 -5 441 8 11 4 14 35 14 149 l0 144
-31 0 c-17 0 -84 -5 -149 -11 -99 -10 -145 -9 -276 5 -154 17 -392 69 -461
101 -17 8 -36 15 -41 15 -6 0 -44 16 -85 35 -41 19 -80 35 -86 35 -6 0 -11 5
-11 10 0 6 -5 10 -11 10 -15 0 -193 105 -249 147 -89 66 -161 127 -229 193
-61 58 -208 237 -230 279 -8 14 -17 28 -21 31 -12 10 -99 160 -92 160 4 0 3 4
-3 8 -19 14 -101 195 -125 277 -6 22 -18 63 -26 90 -131 434 -83 963 122 1360
84 162 126 235 137 235 4 0 7 5 7 11 0 6 24 41 52 78 221 280 480 480 788 607
19 8 42 18 50 23 16 8 122 41 210 65 198 53 408 72 630 56 80 -6 159 -15 175
-20 17 -4 48 -11 70 -15 22 -4 60 -13 85 -20 139 -41 197 -59 210 -66 8 -5 38
-18 65 -30 303 -128 556 -324 773 -600 28 -37 52 -70 52 -73 0 -6 38 -64 50
-76 7 -7 31 -51 75 -138 40 -79 56 -92 82 -71 26 22 201 19 236 -3 38 -25 48
-23 41 10 -7 28 -60 149 -96 217 -12 22 -29 53 -37 70 -9 16 -21 35 -28 42 -6
7 -15 23 -19 35 -3 12 -10 26 -15 32 -5 6 -48 63 -95 126 -100 133 -92 124
-181 215 -85 87 -214 199 -283 245 -28 19 -57 40 -63 45 -7 6 -30 22 -52 35
-22 13 -46 30 -53 37 -7 7 -20 13 -27 13 -7 0 -20 6 -27 13 -40 38 -325 158
-478 201 -243 68 -529 96 -790 77z"/>
<path d="M2385 4181 c-11 -5 -150 -138 -308 -295 l-287 -286 0 79 c0 44 -4 91
-10 105 l-10 26 -199 0 c-198 0 -199 0 -205 -22 -3 -13 -6 -157 -6 -321 l0
-297 -180 -179 -180 -180 0 -55 c0 -47 4 -57 26 -75 24 -19 40 -21 153 -21
l126 0 510 511 c281 281 527 522 547 535 56 36 127 33 181 -6 23 -16 164 -155
314 -308 l272 -279 93 -6 c125 -8 301 -49 393 -92 17 -7 43 -17 59 -21 25 -6
27 -5 18 12 -16 27 -1153 1158 -1179 1172 -25 14 -98 15 -128 3z"/>
<path d="M2405 3625 c-11 -9 -251 -245 -533 -527 l-513 -512 3 -520 3 -521 24
-34 c49 -69 62 -71 474 -71 340 0 367 1 367 17 0 16 -20 79 -40 128 -5 11 -19
65 -31 120 -29 126 -31 346 -5 470 21 98 55 217 67 230 5 5 9 16 9 26 0 37
125 253 170 294 11 10 20 24 20 30 0 7 11 20 25 29 23 15 25 23 25 86 0 41 5
72 11 76 7 4 45 6 86 5 65 -2 83 2 138 28 35 17 69 31 74 31 6 0 11 5 11 10 0
6 7 10 16 10 9 0 30 6 47 14 18 8 61 22 96 31 36 8 67 18 70 21 3 3 -116 126
-264 274 -234 234 -274 270 -300 270 -16 -1 -39 -7 -50 -15z m15 -535 l0 -90
-85 0 -85 0 0 90 0 90 85 0 85 0 0 -90z m230 0 l0 -91 -87 3 -88 3 -3 74 c-2
41 -1 80 2 88 4 9 28 13 91 13 l85 0 0 -90z m-230 -225 l0 -85 -85 0 -85 0 0
85 0 85 85 0 85 0 0 -85z"/>
<path d="M3718 3554 c-42 -23 -75 -69 -82 -116 -6 -42 6 -106 22 -117 7 -5
111 -214 132 -266 5 -11 18 -42 29 -69 12 -27 21 -53 21 -58 0 -6 6 -24 14
-41 31 -71 65 -240 65 -332 1 -115 -20 -176 -35 -100 -3 19 -10 37 -14 40 -5
3 -11 23 -15 45 -4 22 -10 40 -14 40 -4 0 -13 18 -20 40 -6 22 -16 40 -21 40
-6 0 -10 6 -10 14 0 7 -12 26 -26 42 -60 68 -92 100 -114 114 -12 8 -28 20
-34 26 -17 16 -95 51 -166 75 -54 18 -89 22 -205 23 -120 0 -151 -3 -215 -23
-84 -27 -136 -57 -186 -107 -30 -30 -34 -39 -34 -87 0 -57 26 -107 56 -107 8
0 14 -4 14 -9 0 -4 84 -10 186 -13 118 -3 189 -9 197 -17 6 -6 18 -11 27 -11
29 0 115 -53 155 -95 52 -55 75 -86 75 -101 0 -7 3 -14 8 -16 17 -8 42 -110
42 -176 0 -69 -26 -182 -42 -182 -4 0 -8 -6 -8 -13 0 -32 -100 -139 -157 -168
-27 -13 -50 -27 -53 -30 -3 -4 -38 -12 -79 -19 -59 -10 -89 -10 -148 0 -40 7
-73 16 -73 21 0 4 -13 10 -30 14 -16 4 -30 10 -30 15 0 5 -8 11 -18 14 -23 8
-102 81 -102 95 0 5 -6 14 -12 18 -17 11 -47 70 -60 119 -30 110 -18 205 39
312 32 58 36 149 11 202 -29 61 -69 90 -130 97 -76 8 -122 -10 -177 -68 -62
-65 -67 -72 -76 -100 -4 -13 -13 -31 -20 -39 -16 -20 -55 -115 -55 -134 0 -9
-4 -16 -9 -16 -4 0 -14 -24 -20 -52 -7 -29 -16 -71 -21 -93 -25 -114 -19 -454
10 -490 4 -5 11 -29 15 -52 4 -24 10 -43 15 -43 5 0 11 -18 15 -40 4 -22 11
-42 16 -46 5 -3 7 -10 4 -15 -4 -5 -2 -9 4 -9 5 0 12 -14 16 -30 4 -16 10 -30
15 -30 4 0 11 -11 14 -25 4 -14 11 -25 16 -25 6 0 10 -6 10 -14 0 -8 6 -21 13
-28 6 -7 26 -33 42 -58 48 -72 133 -163 277 -296 36 -33 69 -71 73 -85 4 -13
11 -26 16 -29 17 -12 29 -151 29 -352 0 -195 1 -208 19 -218 14 -7 248 -9 718
-8 l698 3 5 298 c4 198 9 301 17 305 6 4 14 26 18 50 4 23 11 42 16 42 5 0 8
3 7 8 -2 8 23 64 33 72 3 3 19 28 34 55 16 28 32 52 36 55 3 3 10 16 14 30 4
13 14 30 21 38 8 7 14 20 14 28 0 8 4 14 9 14 9 0 35 58 32 73 0 4 3 7 8 7 5
0 12 13 16 30 4 17 11 30 15 30 5 0 12 16 16 35 3 19 10 35 15 35 5 0 9 6 9
13 1 6 9 30 20 52 11 22 20 47 20 55 0 8 7 28 15 43 8 15 17 43 21 62 3 19 10
35 14 35 5 0 11 22 15 50 4 27 11 52 15 55 4 3 11 29 15 58 4 28 12 57 17 64
5 7 7 17 3 23 -4 6 -2 23 4 38 6 15 16 70 22 122 15 124 23 550 10 550 -5 0
-12 11 -15 25 -14 57 -82 94 -139 76 -42 -14 -65 -54 -73 -127 -9 -91 -54
-288 -73 -319 -6 -10 -7 -16 -10 -36 0 -5 -5 -8 -9 -5 -4 2 -4 51 1 108 12
142 5 631 -9 649 -6 8 -14 31 -18 52 -4 20 -11 37 -17 37 -6 0 -8 4 -5 8 6 10
-37 50 -73 69 -13 7 -43 13 -67 13 -36 0 -48 -6 -79 -37 -32 -33 -35 -41 -34
-92 0 -31 4 -78 10 -106 43 -231 49 -645 9 -620 -4 2 -10 64 -14 137 -4 73
-11 137 -16 143 -4 5 -11 45 -15 87 -4 43 -10 80 -15 83 -4 3 -11 31 -15 62
-4 32 -11 63 -15 68 -4 6 -13 37 -20 70 -7 33 -16 65 -20 70 -5 6 -11 27 -15
48 -4 20 -11 37 -16 37 -5 0 -9 6 -9 13 -1 6 -9 30 -20 52 -11 22 -19 46 -20
53 0 6 -4 12 -9 12 -5 0 -15 15 -22 33 -15 36 -19 42 -69 98 -19 21 -41 39
-47 39 -7 0 -13 4 -13 9 0 13 -82 41 -115 40 -17 -1 -42 -7 -57 -15z"/>
</g>
</svg>
